<svg width="147" height="77" viewBox="0 0 147 77" fill="none" xmlns="http://www.w3.org/2000/svg">
<rect x="2.98047" y="73.557" width="143.5" height="2.62" fill="#CD4846"/>
<g clip-path="url(#clip0_795_2527)">
<path d="M21.713 37.0237C17.2883 37.0237 13.6885 40.669 13.6885 45.1501C13.6885 49.6312 17.2883 53.2761 21.713 53.2761C26.1377 53.2761 29.7375 49.6308 29.7375 45.1501C29.7375 40.6694 26.1377 37.0237 21.713 37.0237ZM25.7328 45.1497C25.7328 47.3947 23.9295 49.2204 21.713 49.2204C19.4965 49.2204 17.6928 47.3943 17.6928 45.1497C17.6928 42.9051 19.4961 41.0786 21.713 41.0786C23.9299 41.0786 25.7328 42.9051 25.7328 45.1497Z" fill="#231F20"/>
<path d="M12.7753 48.2887L12.703 48.042C12.4223 47.0862 12.392 45.5194 12.392 44.89C12.392 42.263 13.4321 39.8236 15.3202 38.0209C17.2072 36.2193 19.6772 35.3126 22.2781 35.4683C26.8601 35.7421 30.6091 39.4396 30.9981 44.0688C31.1329 45.6732 30.8636 47.2906 30.2182 48.747L30.097 49.0212L65.8915 48.5786V46.8833H73.9251L73.866 46.6447C73.8596 46.6194 73.2505 44.0876 74.3243 41.5434C74.6588 40.751 75.1083 40.0142 75.661 39.3533C75.9678 38.9866 76.0318 38.4888 75.8288 38.0546C75.625 37.6181 75.2117 37.3646 74.725 37.3596L46.0919 37.826V7.94238H42.53V40.1757H32.701V38.4474H40.3843V7.94238H22.5664C20.3794 8.0843 18.7727 9.28329 17.9201 11.4105C17.3894 12.7353 17.3068 14.0137 17.2947 14.4379C17.0572 14.5108 16.4902 14.6876 15.4956 15.0098C15.1267 15.1295 14.8604 15.3584 14.704 15.6902C14.3195 16.5057 14.7543 17.6582 14.7733 17.707L14.8202 17.8293H15.3827L12.6177 24.8027L9.26414 25.3957C5.78594 26.0109 4.17239 27.6599 4.10497 27.7297L4.05157 27.7857V42.0839L3.55273 42.589V47.3831L4.447 48.2887H12.7738H12.7753ZM6.65066 40.8523C6.65066 39.9705 7.35933 39.2528 8.23011 39.2528C9.10089 39.2528 9.80956 39.9705 9.80956 40.8523C9.80956 41.7341 9.10089 42.4517 8.23011 42.4517C7.35933 42.4517 6.65066 41.7341 6.65066 40.8523ZM16.4512 25.2481L18.8575 18.0468H32.2169V25.2481H16.4512ZM32.487 31.7052V32.3013H28.9516V31.7052H32.487Z" fill="#231F20"/>
<path d="M118.794 2.6965L118.794 2.61672L116.208 -0.00219727V48.1372L118.688 45.6253L118.794 2.6965Z" fill="#231F20"/>
<path d="M115.807 6.71692H48.0928V36.5779H115.807V6.71692Z" fill="#231F20"/>
<path d="M122.785 37.803H140.654L144.6 35.8591H124.941L124.948 34.2041H137.063L141.009 32.2602H124.956L124.962 15.1402H122.785V32.2602H121.351L121.371 27.1984V11.5413H119.194V34.2041H122.785V37.803Z" fill="#231F20"/>
<path d="M109.928 48.4014H115.807V37.4209L113.813 37.4021C109.395 37.3569 108.059 37.3427 107.692 37.9422C107.453 38.3342 107.71 38.8424 108.136 39.6843C108.906 41.2086 110.196 43.7596 109.94 48.1981L109.928 48.4014Z" fill="#231F20"/>
<path d="M74.8105 45.1496C74.8105 49.6303 78.4103 53.2756 82.8351 53.2756C87.2598 53.2756 90.8596 49.6303 90.8596 45.1496C90.8596 40.6689 87.2598 37.0232 82.8351 37.0232C78.4103 37.0232 74.8105 40.6685 74.8105 45.1496ZM78.8149 45.1496C78.8149 42.9046 80.6182 41.0785 82.8347 41.0785C85.0512 41.0785 86.8549 42.905 86.8549 45.1496C86.8549 47.3942 85.0512 49.2203 82.8347 49.2203C80.6182 49.2203 78.8149 47.3942 78.8149 45.1496Z" fill="#231F20"/>
<path d="M100.009 37.0237C95.5842 37.0237 91.9844 40.669 91.9844 45.1501C91.9844 49.6312 95.5842 53.2761 100.009 53.2761C104.434 53.2761 108.033 49.6308 108.033 45.1501C108.033 40.6694 104.434 37.0237 100.009 37.0237ZM104.029 45.1497C104.029 47.3947 102.225 49.2204 100.009 49.2204C97.7924 49.2204 95.9891 47.3943 95.9891 45.1497C95.9891 42.9051 97.7924 41.0786 100.009 41.0786C102.225 41.0786 104.029 42.9051 104.029 45.1497Z" fill="#231F20"/>
<path d="M44.8286 63.6233H40.3705V58.5599H36.8828V71.8689H40.3705V66.5479H44.8286V71.8689H48.3162V58.5599H44.8286V63.6233Z" fill="#231F20"/>
<path d="M121.619 58.5599H118.131V71.8689H121.619V58.5599Z" fill="#231F20"/>
<path d="M94.3304 58.5599H90.8428V71.8689H94.3304V58.5599Z" fill="#231F20"/>
<path d="M101.81 63.8258C100.596 63.4204 99.5476 63.0706 99.5476 62.2686C99.5476 61.9679 99.6344 61.7301 99.8044 61.5613C99.9991 61.3695 100.291 61.2748 100.663 61.2817C101.423 61.2982 101.905 61.7339 101.951 62.4469L101.963 62.626H105.703L105.693 62.4243C105.564 59.927 103.659 58.3759 100.722 58.3759C97.7848 58.3759 95.8781 59.9473 95.8781 62.3775C95.8558 65.1824 98.1178 65.9012 99.9351 66.4785C101.354 66.9295 102.224 67.2475 102.224 68.0683C102.224 68.7092 101.737 69.092 100.922 69.092C100.1 69.092 99.6052 68.6306 99.5287 67.7929L99.5128 67.6188H95.835L95.8418 67.8175C95.9296 70.357 97.9598 71.9978 101.013 71.9978C103.865 71.9978 105.857 70.2834 105.857 67.829C105.857 65.1755 103.613 64.4268 101.81 63.8254L101.81 63.8258Z" fill="#231F20"/>
<path d="M106.695 61.4661H110.077V71.8689H113.565V61.4661H116.947V58.5599H106.695V61.4661Z" fill="#231F20"/>
<path d="M129.538 61.6686C130.692 61.6686 131.557 62.204 132.04 63.2174L132.092 63.3256H135.875L135.812 63.0851C135.063 60.203 132.673 58.4126 129.574 58.4126C125.684 58.4126 122.967 61.2018 122.967 65.1962C122.967 69.1905 125.684 71.9613 129.574 71.9613C132.676 71.9613 135.066 70.1782 135.812 67.3073L135.875 67.0668H132.092L132.04 67.1749C131.557 68.1883 130.691 68.7237 129.538 68.7237C127.698 68.7237 126.509 67.3391 126.509 65.1962C126.509 63.0532 127.698 61.6686 129.538 61.6686Z" fill="#231F20"/>
<path d="M142.953 63.8258C141.739 63.4204 140.69 63.0706 140.69 62.2686C140.69 61.9679 140.777 61.7301 140.947 61.5613C141.142 61.3695 141.436 61.2748 141.806 61.2817C142.566 61.2982 143.047 61.7339 143.094 62.4469L143.106 62.626H146.846L146.836 62.4243C146.707 59.927 144.802 58.3759 141.865 58.3759C138.927 58.3759 137.021 59.9473 137.021 62.3775C136.998 65.1824 139.26 65.9012 141.078 66.4785C142.497 66.9295 143.366 67.2475 143.366 68.0683C143.366 68.7092 142.88 69.092 142.065 69.092C141.243 69.092 140.748 68.6306 140.671 67.7929L140.655 67.6188H136.978L136.984 67.8175C137.072 70.357 139.102 71.9978 142.155 71.9978C145.007 71.9978 146.999 70.2834 146.999 67.829C146.999 65.1755 144.755 64.4268 142.953 63.8254L142.953 63.8258Z" fill="#231F20"/>
<path d="M82.3529 66.8976H86.2174C85.725 68.1419 84.755 68.797 83.3967 68.797C81.2408 68.797 80.0041 67.4845 80.0041 65.1958C80.0041 63.0755 81.2359 61.7051 83.1422 61.7051C84.2368 61.7051 85.047 62.1289 85.486 62.9317L85.5402 63.0306H89.3324L89.2718 62.7913C88.576 60.0493 86.2844 58.4122 83.1426 58.4122C79.2091 58.4122 76.4619 61.2015 76.4619 65.1958C76.4619 69.1902 79.2163 71.961 83.1608 71.961C86.5992 71.961 88.8161 69.6539 89.488 67.3679L89.496 64.194H82.3536V66.8976H82.3529Z" fill="#231F20"/>
<path d="M20.8483 66.485C20.8483 67.9371 20.1344 68.705 18.7833 68.705C17.1065 68.705 16.7547 67.4979 16.7547 66.485V58.5599H13.2666V66.4666C13.2666 69.8787 15.3597 71.9978 18.7292 71.9978C22.1358 71.9978 24.3368 69.8269 24.3368 66.4666V58.5599H20.8487L20.8483 66.485Z" fill="#231F20"/>
<path d="M142.726 54.1955L4.27301 54.0892H4.19423L1.6084 56.7082H146.48L142.726 54.1955Z" fill="#231F20"/>
<path d="M25.4473 61.4661H28.8289V71.8689H32.3169V61.4661H35.6989V58.5599H25.4473V61.4661Z" fill="#231F20"/>
<path d="M6.31061 63.7069L3.95961 58.5599H0L4.53988 67.4527V71.8689H8.02793V67.4527L12.5682 58.5599H8.64456L6.31061 63.7069Z" fill="#231F20"/>
<path d="M57.514 58.5599H54.0264V71.8689H61.5869V69.0548H57.514V58.5599Z" fill="#231F20"/>
<path d="M68.9253 58.3762C65.0751 58.3762 62.1719 61.3005 62.1719 65.1778C62.1719 69.0552 65.0751 71.9978 68.9253 71.9978C72.7546 71.9978 75.6419 69.0655 75.6419 65.1778C75.6419 61.2901 72.7542 58.3762 68.9253 58.3762ZM68.9253 68.7422C66.9856 68.7422 65.7323 67.3434 65.7323 65.1778C65.7323 62.9793 66.9557 61.6134 68.9253 61.6134C70.8831 61.6134 72.0993 62.9793 72.0993 65.1778C72.0993 67.3434 70.8536 68.7422 68.9253 68.7422Z" fill="#231F20"/>
</g>
<defs>
<clipPath id="clip0_795_2527">
<rect width="147" height="72" fill="white" transform="translate(0 -0.00219727)"/>
</clipPath>
</defs>
</svg>
